<svg xmlns="http://www.w3.org/2000/svg" width="24" height="24" viewBox="0 0 24 24" fill="none">
  <path
    d="M13.1522 10.8479C11.6614 9.35706 10.0563 8.15651 8.49072 7.30338C8.94807 8.07296 9.50657 8.87332 10.1618 9.68249C10.8918 10.2762 11.6262 10.9358 12.3474 11.657C16.7011 16.0107 18.9439 20.8568 16.8198 22.9809C16.3361 23.4646 15.6237 23.579 15.0256 23.3327C15.2719 23.0776 15.2719 22.673 15.0212 22.4224C14.7661 22.1673 14.3527 22.1673 14.1021 22.4224C13.847 22.6774 13.847 23.0908 14.1021 23.3415C14.1065 23.3459 14.1153 23.3503 14.1197 23.3547C14.1241 23.3591 14.1241 23.3591 14.1241 23.3635C14.9728 24.2122 16.3537 24.2122 17.2024 23.3635C19.5331 21.0239 17.7213 15.4126 13.1522 10.8479Z"
    fill="#454545" />
  <path
    d="M3.71489 8.95686C3.45983 8.7018 3.04645 8.7018 2.79579 8.95686C2.54952 9.20313 2.54512 9.60331 2.78259 9.85837C2.19331 10.0914 1.49409 9.97271 1.01915 9.49337C0.381493 8.85572 0.381493 7.81788 1.01915 7.17583C2.07897 6.116 3.82043 6.14239 5.83894 6.98233C5.7202 6.6745 5.61466 6.37546 5.52671 6.07642C3.48621 5.53112 1.71397 5.72461 0.636555 6.79763C-0.212185 7.64637 -0.212185 9.02722 0.636555 9.87596C1.4853 10.7247 2.86615 10.7247 3.71489 9.87596C3.96995 9.6253 3.96995 9.21192 3.71489 8.95686Z"
    fill="#454545" />
  <path
    d="M20.2852 15.0432C20.5402 15.2982 20.9536 15.2982 21.2043 15.0432C21.4506 14.7969 21.4549 14.3967 21.2175 14.1417C21.8068 13.9086 22.506 14.0273 22.9809 14.5067C23.6186 15.1443 23.6186 16.1822 22.9809 16.8242C21.9211 17.884 20.1796 17.8577 18.1611 17.0177C18.2799 17.3255 18.3854 17.6246 18.4734 17.9236C20.5139 18.4689 22.2861 18.2754 23.3635 17.2024C24.2123 16.3537 24.2123 14.9728 23.3635 14.1241C22.5148 13.2753 21.1339 13.2753 20.2852 14.1241C20.0301 14.3747 20.0301 14.7881 20.2852 15.0432Z"
    fill="#454545" />
  <path
    d="M13.8382 14.3176C13.1082 13.7239 12.3738 13.0643 11.6526 12.343C7.29894 7.9894 5.05616 3.14323 7.18021 1.01918C7.66395 0.53544 8.37636 0.421102 8.97444 0.667369C8.72817 0.922431 8.72817 1.32701 8.97883 1.57768C9.2339 1.83274 9.64727 1.83274 9.89794 1.57768C10.153 1.32261 10.153 0.909238 9.89794 0.658574C9.89354 0.654176 9.88474 0.649779 9.88035 0.645381C9.87595 0.640983 9.87595 0.640983 9.87595 0.636586C9.02721 -0.212155 7.64636 -0.212155 6.79762 0.636586C4.46248 2.97172 6.2787 8.58748 10.8434 13.1522C12.3342 14.643 13.9393 15.8435 15.5049 16.6967C15.0519 15.9315 14.4934 15.1311 13.8382 14.3176Z"
    fill="#454545" />
  <path
    d="M10.8478 10.8479C9.35703 12.3387 8.15648 13.9438 7.30334 15.5093C8.07293 15.052 8.87329 14.4935 9.68246 13.8382C10.2761 13.1082 10.9358 12.3738 11.657 11.6526C16.0106 7.29898 20.8568 5.0562 22.9809 7.18025C23.4646 7.66398 23.5789 8.3764 23.3327 8.97447C23.0776 8.72821 22.673 8.72821 22.4224 8.97887C22.1673 9.23393 22.1673 9.64731 22.4224 9.89797C22.6774 10.153 23.0908 10.153 23.3415 9.89797C23.3459 9.89358 23.3503 9.88478 23.3547 9.88038C23.359 9.87599 23.359 9.87599 23.3634 9.87599C24.2122 9.02725 24.2122 7.64639 23.3634 6.79765C21.0239 4.46691 15.4126 6.28313 10.8478 10.8479Z"
    fill="#454545" />
  <path
    d="M8.95683 20.2851C8.70177 20.5402 8.70177 20.9536 8.95683 21.2042C9.2031 21.4505 9.60328 21.4549 9.85834 21.2174C10.0914 21.8067 9.97268 22.5059 9.49334 22.9809C8.85569 23.6185 7.81785 23.6185 7.17579 22.9809C6.11597 21.921 6.14235 20.1796 6.9823 18.1611C6.67447 18.2798 6.37543 18.3853 6.07639 18.4733C5.53109 20.5138 5.72458 22.286 6.7976 23.3635C7.64634 24.2122 9.02719 24.2122 9.87593 23.3635C10.7247 22.5147 10.7247 21.1339 9.87593 20.2851C9.62527 20.0301 9.21189 20.0301 8.95683 20.2851Z"
    fill="#454545" />
  <path
    d="M15.0432 3.71492C15.2983 3.45986 15.2983 3.04648 15.0432 2.79582C14.7969 2.54955 14.3968 2.54515 14.1417 2.78262C13.9086 2.19334 14.0274 1.49412 14.5067 1.01918C15.1444 0.381524 16.1822 0.381524 16.8242 1.01918C17.8841 2.079 17.8577 3.82046 17.0177 5.83897C17.3256 5.72023 17.6246 5.61469 17.9236 5.52674C18.469 3.48624 18.2755 1.714 17.2024 0.636586C16.3537 -0.212155 14.9728 -0.212155 14.1241 0.636586C13.2754 1.48533 13.2754 2.86618 14.1241 3.71492C14.3748 3.96998 14.7881 3.96998 15.0432 3.71492Z"
    fill="#454545" />
  <path
    d="M14.3175 10.1618C13.7239 10.8918 13.0642 11.6262 12.343 12.3474C7.98937 16.7011 3.1432 18.9439 1.01915 16.8198C0.53541 16.3361 0.421072 15.6237 0.667339 15.0256C0.9224 15.2718 1.32698 15.2718 1.57765 15.0212C1.83271 14.7661 1.83271 14.3527 1.57765 14.1021C1.32258 13.847 0.909208 13.847 0.658543 14.1021C0.654146 14.1065 0.649748 14.1153 0.645351 14.1197C0.640953 14.1241 0.640953 14.1241 0.636555 14.1241C-0.212185 14.9728 -0.212185 16.3537 0.636555 17.2024C2.97169 19.5375 8.58745 17.7213 13.1522 13.1566C14.643 11.6658 15.8435 10.0607 16.6967 8.49512C15.9315 8.94807 15.1311 9.50657 14.3175 10.1618Z"
    fill="#454545" />
</svg>